# xmcd
#
# Track frame offsets:
#	150
#	20187
#	37114
#	55478
#	76334
#	89841
#	100988
#	110843
#	127589
#	147292
#	153466
#	162528
#
# Disc length: 2405 seconds
#
# Revision: 0
# Processed by: cddbd v1.5.1PL2 Copyright (c) Steve Scherf et al.
# Submitted via: dBpowerAMP V4.0
#
DISCID=ab09630c
DTITLE=Tom Waits - Blood Money
DYEAR=1900
DGENRE=Blues
TTITLE0=Misery Is The River Of The World
TTITLE1=Everything Goes To Hell
TTITLE2=Coney Island Baby
TTITLE3=All The World Is Green
TTITLE4=God's Away On Business
TTITLE5=Another Man's Vine
TTITLE6=Lullaby
TTITLE7=Starving In The Belly Of A Whale
TTITLE8=The Part You Throw Away
TTITLE9=Woe
TTITLE10=Calliope (Instrumental)
TTITLE11=A Good Man
EXTD=
EXTT0=
EXTT1=
EXTT2=
EXTT3=
EXTT4=
EXTT5=
EXTT6=
EXTT7=
EXTT8=
EXTT9=
EXTT10=
EXTT11=
PLAYORDER=
